HIERARCHY
ROOT joint_Root
{
	OFFSET 0.0 0.0 0.0
	CHANNELS 6 Xposition Yposition Zposition Zrotation Xrotation Yrotation 
	JOINT Hips
	{
		OFFSET 4.5925 91.4895 -427.239
		CHANNELS 6 Xposition Yposition Zposition Zrotation Xrotation Yrotation 
		JOINT Spine
		{
			OFFSET 15.7357 0.0 0.0
			CHANNELS 6 Xposition Yposition Zposition Zrotation Xrotation Yrotation 
			JOINT Chest
			{
				OFFSET 8.98455 -0.406207 0.0
				CHANNELS 6 Xposition Yposition Zposition Zrotation Xrotation Yrotation 
				JOINT Neck
				{
					OFFSET 16.3773 0.0 0.0
					CHANNELS 6 Xposition Yposition Zposition Zrotation Xrotation Yrotation 
					JOINT Head
					{
						OFFSET 6.45672 0.0 0.0
						CHANNELS 6 Xposition Yposition Zposition Zrotation Xrotation Yrotation 
						End Site
						{
							OFFSET 0.0 0.0 0.0
						}
					}
				}
				JOINT Shoulder_L
				{
					OFFSET 12.9942 -0.242716 4.98039
					CHANNELS 6 Xposition Yposition Zposition Zrotation Xrotation Yrotation 
					JOINT UpperArm_L
					{
						OFFSET 5.34809 0.0 0.0
						CHANNELS 6 Xposition Yposition Zposition Zrotation Xrotation Yrotation 
						JOINT LowerArm_L
						{
							OFFSET 24.3286 1.87007e-05 0.0
							CHANNELS 6 Xposition Yposition Zposition Zrotation Xrotation Yrotation 
							JOINT Hand_L
							{
								OFFSET 22.2916 0.0 0.0
								CHANNELS 6 Xposition Yposition Zposition Zrotation Xrotation Yrotation 
								End Site
								{
									OFFSET 0.0 0.0 0.0
								}
							}
						}
					}
				}
				JOINT Shoulder_R
				{
					OFFSET 12.9945 -0.242716 -4.98039
					CHANNELS 6 Xposition Yposition Zposition Zrotation Xrotation Yrotation 
					JOINT UpperArm_R
					{
						OFFSET -5.34813 0.0 0.0
						CHANNELS 6 Xposition Yposition Zposition Zrotation Xrotation Yrotation 
						JOINT LowerArm_R
						{
							OFFSET -24.3289 0.000322201 0.0
							CHANNELS 6 Xposition Yposition Zposition Zrotation Xrotation Yrotation 
							JOINT Hand_R
							{
								OFFSET -22.2915 -0.000108084 0.0
								CHANNELS 6 Xposition Yposition Zposition Zrotation Xrotation Yrotation 
								End Site
								{
									OFFSET 0.0 0.0 0.0
								}
							}
						}
					}
				}
			}
		}
		JOINT UpperLeg_L
		{
			OFFSET -2.19248 -6.46944 0.0
			CHANNELS 6 Xposition Yposition Zposition Zrotation Xrotation Yrotation 
			JOINT LowerLeg_L
			{
				OFFSET 39.0811 0.0 -1.23785e-05
				CHANNELS 6 Xposition Yposition Zposition Zrotation Xrotation Yrotation 
				JOINT Foot_L
				{
					OFFSET 40.9854 0.0 -1.26872e-05
					CHANNELS 6 Xposition Yposition Zposition Zrotation Xrotation Yrotation 
					JOINT Toes_L
					{
						OFFSET 11.7543 0.0 0.0
						CHANNELS 6 Xposition Yposition Zposition Zrotation Xrotation Yrotation 
						End Site
						{
							OFFSET 0.0 0.0 0.0
						}
					}
				}
			}
		}
		JOINT UpperLeg_R
		{
			OFFSET -2.19251 6.46944 0.0
			CHANNELS 6 Xposition Yposition Zposition Zrotation Xrotation Yrotation 
			JOINT LowerLeg_R
			{
				OFFSET -39.0811 -0.00228153 -0.0401928
				CHANNELS 6 Xposition Yposition Zposition Zrotation Xrotation Yrotation 
				JOINT Foot_R
				{
					OFFSET -40.9854 0.0 0.0
					CHANNELS 6 Xposition Yposition Zposition Zrotation Xrotation Yrotation 
					JOINT Toes_R
					{
						OFFSET -11.7543 0.0 0.0
						CHANNELS 6 Xposition Yposition Zposition Zrotation Xrotation Yrotation 
						End Site
						{
							OFFSET 0.0 0.0 0.0
						}
					}
				}
			}
		}
	}
}
MOTION
Frames:	4
Frame Time:	0.0333333
0.000000 0.000000 0.000000 0.000000 0.000000 -0.000000 0.469023 92.301600 -0.720934 88.022500 6.901190 3.912430 15.735700 0.000005 -0.000001 103.563000 86.719300 -107.653000 8.984550 -0.406207 -0.000000 -1.308110 1.861830 -8.156520 16.377300 -0.000001 -0.000001 6.231600 -4.393400 5.068620 6.456720 -0.000001 -0.000000 -3.034230 -3.166950 0.573583 12.994200 -0.242716 4.980390 -91.961700 4.458350 -66.220700 5.348090 -0.000007 -0.000001 -61.609500 8.684260 1.543400 24.328600 0.000019 0.000005 10.147200 23.623900 -24.067300 22.291600 -0.000001 0.000005 14.276200 5.141170 4.153530 12.994500 -0.242716 -4.980390 95.053400 -12.700200 -68.089200 -5.348130 -0.000001 -0.000004 -37.512900 -68.113500 -80.784200 -24.328900 0.000322 -0.000009 -5.146050 -8.523040 -31.280400 -22.291500 -0.000108 -0.000004 17.932100 5.539910 -8.238760 -2.192480 -6.469440 -0.000000 -174.873000 -11.437400 -4.141050 39.081100 -0.000007 -0.000012 -0.011393 0.026141 23.548600 40.985400 -0.000006 -0.000013 2.845200 15.745500 -66.424000 11.754300 -0.000000 0.000003 -0.000054 -0.000601 -16.600900 -2.192510 6.469440 -0.000001 176.079000 25.879700 -178.917000 -39.081100 -0.002282 -0.040193 0.005415 -0.005782 19.905300 -40.985400 0.000008 0.000006 4.832020 16.088900 -66.381700 -11.754300 -0.000006 -0.000006 -0.004499 -0.056534 -18.873000
0.000000 0.000000 0.000000 0.000000 0.000000 -0.000000 0.631234 92.347100 -0.925795 88.171900 5.895380 3.770140 15.735700 0.000005 -0.000001 103.030000 86.712400 -106.891000 8.984550 -0.406207 -0.000000 -1.288360 1.786830 -7.699570 16.377300 -0.000001 -0.000001 5.766560 -4.098060 4.898420 6.456720 -0.000001 -0.000000 -2.727610 -3.190160 1.169300 12.994200 -0.242716 4.980390 -92.091200 4.748170 -66.196600 5.348090 -0.000007 -0.000001 -62.531600 11.158200 0.943477 24.328600 0.000019 0.000005 9.720360 24.475700 -22.463300 22.291600 -0.000001 0.000005 14.139700 5.131350 4.386760 12.994500 -0.242716 -4.980390 94.419600 -11.341200 -68.544000 -5.348130 -0.000001 -0.000004 -37.169100 -65.129500 -76.576000 -24.328900 0.000322 -0.000009 -6.496670 -7.529540 -40.983800 -22.291500 -0.000108 -0.000004 20.023200 5.545470 -8.488390 -2.192480 -6.469440 -0.000000 -175.149000 -12.304600 -4.066750 39.081100 -0.000007 -0.000012 -0.006182 0.014427 23.194400 40.985400 -0.000006 -0.000013 2.895170 15.518900 -66.198700 11.754300 -0.000000 0.000003 -0.000052 -0.000585 -16.600300 -2.192510 6.469440 -0.000001 175.912000 25.576000 -179.195000 -39.081100 -0.002282 -0.040193 0.006019 -0.007524 19.717900 -40.985400 0.000008 0.000006 4.852100 16.779300 -66.241200 -11.754300 -0.000006 -0.000006 -0.004663 -0.058169 -18.939600
0.000000 0.000000 0.000000 0.000000 0.000000 -0.000000 0.754799 92.389000 -1.140270 88.262400 4.799590 3.689250 15.735700 0.000005 -0.000001 101.561000 86.693400 -105.147000 8.984550 -0.406207 -0.000000 -1.226650 1.606230 -7.153930 16.377300 -0.000001 -0.000001 5.154090 -3.591670 4.462300 6.456720 -0.000001 -0.000000 -2.330050 -3.161840 1.855710 12.994200 -0.242716 4.980390 -92.221100 5.009890 -66.052400 5.348090 -0.000007 -0.000001 -63.532500 13.333100 0.225285 24.328600 0.000019 0.000005 9.478860 25.497800 -21.199400 22.291600 -0.000001 0.000005 13.169100 5.117590 4.708400 12.994500 -0.242716 -4.980390 93.612000 -9.607590 -69.283100 -5.348130 -0.000001 -0.000004 -35.596700 -61.236400 -70.319900 -24.328900 0.000322 -0.000009 -7.884430 -6.059900 -52.676200 -22.291500 -0.000108 -0.000004 21.970300 5.553800 -8.880500 -2.192480 -6.469440 -0.000000 -175.323000 -13.151700 -3.970550 39.081100 -0.000007 -0.000012 -0.004760 0.011272 22.894000 40.985400 -0.000006 -0.000013 2.904120 15.244500 -65.988400 11.754300 -0.000000 0.000003 -0.000053 -0.000600 -16.600800 -2.192510 6.469440 -0.000001 175.757000 25.473500 -179.433000 -39.081100 -0.002282 -0.040193 0.005927 -0.007342 19.536000 -40.985400 0.000008 0.000006 4.863280 17.804900 -66.061500 -11.754300 -0.000006 -0.000006 -0.004511 -0.056652 -18.877900
0.000000 0.000000 0.000000 0.000000 0.000000 -0.000000 0.833137 92.410900 -1.336450 88.309100 3.772420 3.648010 15.735700 0.000005 -0.000001 98.907500 86.680300 -102.216000 8.984550 -0.406207 -0.000000 -1.161040 1.285300 -6.601280 16.377300 -0.000001 -0.000001 4.624800 -3.132300 3.964140 6.456720 -0.000001 -0.000000 -2.064790 -2.978760 2.476590 12.994200 -0.242716 4.980390 -92.326600 5.248190 -66.050200 5.348090 -0.000007 -0.000001 -64.542700 14.738100 -0.246648 24.328600 0.000019 0.000005 9.479270 26.145100 -20.752700 22.291600 -0.000001 0.000005 12.531900 5.110890 4.862840 12.994500 -0.242716 -4.980390 92.719400 -7.642200 -70.347400 -5.348130 -0.000001 -0.000004 -34.127400 -56.058800 -63.087100 -24.328900 0.000322 -0.000009 -8.978820 -4.178680 -65.242300 -22.291500 -0.000108 -0.000004 23.260600 5.560120 -9.192630 -2.192480 -6.469440 -0.000000 -175.435000 -13.749400 -3.920340 39.081100 -0.000007 -0.000012 -0.006056 0.014442 22.750300 40.985400 -0.000006 -0.000013 2.857320 14.783800 -65.853100 11.754300 -0.000000 0.000003 -0.000052 -0.000583 -16.600200 -2.192510 6.469440 -0.000001 175.715000 25.196200 -179.652000 -39.081100 -0.002282 -0.040193 0.006352 -0.008601 19.406600 -40.985400 0.000008 0.000006 5.018890 18.563500 -66.036300 -11.754300 -0.000006 -0.000006 -0.004409 -0.055624 -18.836000
